<?xml version="1.0" standalone="no"?>
<!DOCTYPE svg PUBLIC "-//W3C//DTD SVG 20010904//EN"
 "http://www.w3.org/TR/2001/REC-SVG-20010904/DTD/svg10.dtd">
<svg version="1.0" xmlns="http://www.w3.org/2000/svg"
 width="500.000000pt" height="500.000000pt" viewBox="0 0 500.000000 500.000000"
 preserveAspectRatio="xMidYMid meet">

<g transform="translate(0.000000,500.000000) scale(0.100000,-0.100000)"
fill="#000000" stroke="none">
<path d="M2355 4724 c-182 -11 -430 -61 -610 -124 -128 -44 -352 -157 -472
-237 -206 -137 -397 -318 -545 -514 -316 -421 -472 -959 -428 -1479 52 -637
363 -1199 876 -1585 278 -210 645 -360 1000 -411 160 -23 450 -23 604 0 784
116 1439 629 1728 1353 105 263 154 526 154 818 -1 265 -44 518 -128 742 -315
847 -1092 1408 -1989 1436 -71 2 -157 3 -190 1z m315 -274 c0 -18 -7 -20 -59
-20 l-58 0 -7 -37 c-3 -21 -6 -86 -6 -145 0 -101 -1 -108 -20 -108 -19 0 -20
7 -20 145 l0 145 -60 0 c-53 0 -60 2 -60 20 0 19 7 20 145 20 138 0 145 -1
145 -20z m-526 -62 c27 -97 66 -250 66 -259 0 -25 -50 0 -166 85 -71 52 -130
93 -132 91 -2 -2 10 -56 27 -121 17 -64 31 -118 31 -119 0 -2 -8 -5 -19 -8
-17 -4 -23 12 -56 142 -21 80 -38 153 -39 161 -2 34 38 15 160 -74 71 -52 130
-90 132 -85 3 6 -28 131 -54 222 -4 12 0 17 15 17 16 0 24 -11 35 -52z m986
-28 c0 -3 -4 -11 -9 -18 -7 -11 -21 -10 -78 7 -39 12 -77 21 -85 21 -8 0 -19
-19 -27 -47 -7 -27 -15 -55 -18 -64 -3 -12 13 -21 71 -38 46 -14 76 -28 76
-36 0 -24 -15 -25 -81 -5 -35 11 -69 20 -75 20 -5 0 -16 -22 -23 -50 -13 -50
-17 -55 -44 -45 -11 5 -6 33 29 151 23 79 44 151 47 158 5 11 27 8 111 -17 58
-17 106 -34 106 -37z m-1510 -122 c0 -4 -38 -30 -84 -58 l-85 -51 21 -34 c11
-19 22 -35 25 -35 4 0 37 18 75 40 78 45 83 46 92 25 4 -10 -16 -27 -67 -56
-40 -23 -74 -44 -76 -45 -5 -4 24 -59 45 -88 12 -17 18 -16 92 27 93 54 107
58 107 34 0 -25 -196 -140 -211 -124 -22 25 -155 258 -152 268 2 5 48 36 103
68 93 54 114 60 115 29z m1723 -89 c-65 -105 -73 -151 -34 -193 32 -34 86 -49
120 -33 25 12 70 70 123 161 19 32 32 44 43 40 8 -3 15 -11 15 -16 0 -23 -104
-180 -135 -204 -89 -68 -235 5 -235 117 0 38 22 85 84 182 32 50 39 56 56 47
18 -10 16 -16 -37 -101z m-2083 -244 c16 -16 26 -40 30 -72 l5 -47 55 -17 c58
-17 69 -29 47 -47 -11 -9 -28 -7 -72 8 -65 22 -66 22 -117 -42 l-31 -39 37
-38 c32 -33 35 -39 21 -51 -13 -11 -32 3 -130 95 -63 59 -115 110 -115 113 0
11 106 119 145 145 47 33 86 31 125 -8z m2590 -4 c0 -4 -47 -49 -104 -101
l-104 -94 58 -65 c45 -50 56 -69 48 -79 -6 -7 -14 -11 -18 -10 -12 5 -140 149
-140 158 0 4 52 56 116 114 93 85 119 104 130 95 8 -6 14 -14 14 -18z m-1125
-30 c148 -26 200 -43 330 -106 385 -186 658 -528 750 -940 25 -109 31 -388 11
-507 -37 -223 -131 -436 -272 -611 -199 -249 -434 -405 -724 -479 -97 -25
-141 -31 -283 -35 -193 -7 -305 5 -447 48 -218 64 -390 169 -565 344 -274 273
-396 570 -396 964 0 326 90 585 290 833 209 259 495 433 806 489 140 25 357
25 500 0z m-1641 -1428 c30 -341 147 -612 365 -845 284 -303 614 -449 1021
-451 364 -1 652 104 922 337 135 115 268 286 347 444 68 134 131 376 131 501
0 25 3 56 6 69 l6 22 371 -2 372 -3 -3 -85 c-19 -572 -314 -1159 -772 -1541
-286 -239 -673 -415 -1030 -469 -458 -69 -905 2 -1315 208 -651 327 -1101 995
-1164 1727 -6 66 -11 130 -11 143 l0 22 374 0 374 0 6 -77z"/>
<path d="M1104 3839 c-30 -29 -54 -58 -54 -65 0 -6 22 -30 48 -53 l49 -40 35
37 c72 76 85 115 48 152 -33 33 -66 25 -126 -31z"/>
<path d="M2232 3799 c-449 -94 -798 -393 -959 -819 -77 -203 -96 -480 -49
-700 55 -258 176 -481 354 -651 114 -110 177 -156 293 -218 195 -104 385 -151
607 -151 218 0 407 45 592 142 125 64 215 131 325 242 165 166 277 368 336
607 20 82 23 118 23 289 0 171 -3 207 -23 289 -23 94 -70 221 -112 303 -77
152 -237 338 -384 446 -144 106 -341 190 -534 226 -120 23 -348 20 -469 -5z
m467 -95 c421 -73 783 -395 910 -809 42 -140 52 -206 52 -355 0 -149 -10 -216
-52 -355 -73 -236 -221 -447 -420 -595 -414 -308 -990 -312 -1407 -8 -153 110
-306 296 -381 463 -287 631 20 1363 674 1610 187 70 403 87 624 49z"/>
<path d="M2280 3575 c-432 -82 -770 -423 -845 -851 -100 -575 282 -1120 858
-1220 122 -22 318 -14 437 16 92 24 234 87 315 139 28 18 41 29 30 25 -128
-49 -223 -74 -316 -84 -522 -56 -983 317 -1040 841 -37 338 115 674 396 874
241 171 564 218 845 121 52 -18 104 -36 115 -40 47 -18 -88 61 -170 100 -135
63 -233 85 -405 90 -98 2 -169 -1 -220 -11z"/>
<path d="M2525 3364 c-81 -18 -203 -67 -257 -102 -21 -14 -38 -26 -38 -27 0
-1 30 9 68 22 41 15 110 29 178 36 95 9 123 8 199 -7 206 -40 348 -126 478
-291 199 -252 199 -658 0 -910 -130 -165 -272 -251 -478 -291 -76 -15 -104
-16 -199 -7 -68 7 -137 21 -178 36 -38 13 -68 23 -68 22 0 -9 87 -56 150 -82
118 -49 224 -67 360 -60 144 8 207 24 340 90 93 46 116 62 205 152 128 129
194 242 236 405 19 73 19 307 0 380 -42 163 -108 276 -236 405 -89 90 -112
106 -205 152 -58 29 -132 59 -165 68 -88 24 -302 29 -390 9z"/>
<path d="M2050 2540 l0 -480 154 0 153 0 6 51 c4 27 3 102 0 165 -6 108 -5
114 13 114 14 0 40 -40 104 -165 l85 -165 172 0 172 0 -78 133 c-43 72 -94
159 -114 191 l-35 60 38 27 c81 59 119 134 120 240 0 123 -54 217 -150 258
-92 40 -185 51 -421 51 l-219 0 0 -480z m445 235 c40 -39 32 -127 -14 -162 -9
-7 -40 -13 -68 -13 l-53 0 0 100 0 100 55 0 c46 0 60 -4 80 -25z"/>
<path d="M1100 1420 c-101 -96 -112 -110 -100 -124 12 -15 17 -14 50 19 20 19
39 35 43 35 4 0 27 -20 52 -43 l45 -44 -22 -61 c-18 -51 -19 -63 -8 -77 17
-21 26 -11 48 55 l19 54 45 -3 c40 -2 48 1 76 34 36 40 39 62 15 108 -16 31
-131 157 -142 157 -3 -1 -58 -50 -121 -110z m201 -24 c35 -47 38 -89 7 -110
-39 -28 -66 -19 -126 39 l-57 54 49 50 50 51 24 -23 c14 -12 38 -40 53 -61z"/>
<path d="M3600 1385 c-13 -16 12 -43 186 -198 l41 -36 39 42 c106 114 108 117
96 129 -10 10 -26 -2 -77 -52 l-65 -64 -57 54 c-152 145 -149 142 -163 125z"/>
<path d="M3422 1238 c-7 -9 5 -38 44 -102 41 -68 54 -98 54 -128 0 -81 -99
-128 -164 -77 -14 11 -49 58 -77 104 -46 74 -54 83 -71 74 -21 -11 -23 -7 58
-134 58 -91 104 -120 169 -105 77 17 127 74 127 144 0 40 -9 63 -57 142 -32
52 -61 94 -65 94 -4 0 -12 -6 -18 -12z"/>
<path d="M1480 1084 c-44 -75 -80 -139 -80 -142 0 -7 189 -121 207 -125 4 -1
9 5 11 14 2 12 -23 31 -80 65 -46 26 -85 49 -86 50 -5 4 48 93 59 100 5 3 42
-13 81 -36 60 -34 74 -39 85 -28 11 12 1 21 -62 57 -41 23 -75 47 -75 52 0 18
30 69 41 69 7 0 45 -20 86 -45 81 -49 88 -52 96 -31 4 10 -27 33 -99 75 l-104
60 -80 -135z"/>
<path d="M2928 1001 c-48 -15 -90 -30 -94 -34 -4 -3 13 -74 37 -157 36 -126
46 -150 62 -150 17 0 19 5 12 38 -14 77 -16 74 59 97 67 20 92 40 64 50 -7 3
-44 -4 -82 -15 -38 -11 -71 -19 -72 -17 -4 4 -34 115 -34 125 0 5 12 13 28 17
104 25 132 37 132 56 0 23 -4 23 -112 -10z"/>
<path d="M1911 938 c-12 -46 -31 -114 -41 -153 -18 -67 -15 -84 11 -85 4 0 22
57 40 126 32 122 33 126 46 98 87 -194 134 -284 147 -284 9 0 19 15 25 38 35
129 71 268 71 275 0 4 -8 7 -18 7 -15 0 -24 -21 -47 -112 -15 -62 -31 -116
-34 -120 -3 -4 -36 59 -72 140 -84 185 -96 192 -128 70z"/>
<path d="M2377 933 c-4 -3 -7 -12 -7 -20 0 -9 18 -13 65 -13 l65 0 0 -145 c0
-145 0 -145 23 -145 l23 0 -4 145 -5 145 62 0 c54 0 61 2 61 20 0 19 -7 20
-138 20 -76 0 -142 -3 -145 -7z"/>
</g>
</svg>
